<svg xmlns="http://www.w3.org/2000/svg" width="32px" height="32px"  viewBox="0 0 24 24"><path d="M20.435,8.005c0.83,0,1.5-0.67,1.5-1.5c0-0.82-0.67-1.5-1.5-1.5c-0.65,0-1.21,0.42-1.41,1h-5.53
                v-0.25c0-0.41-0.33-0.75-0.75-0.75h-1.5c-0.41,0-0.75,0.34-0.75,0.75v0.25h-5.52c-0.21-0.58-0.77-1-1.41-1
                c-0.83,0-1.5,0.68-1.5,1.5c0,0.83,0.67,1.5,1.5,1.5c0.65,0,1.21-0.42,1.41-1h3.79c-2.5,1.61-4.23,5-4.47,8.99h-0.28
                c-0.42,0-0.75,0.34-0.75,0.75v1.5c0,0.41,0.33,0.75,0.75,0.75h1.5c0.41,0,0.75-0.34,0.75-0.75v-1.5c0-0.41-0.34-0.75-0.75-0.75
                h-0.21c0.27-4.22,2.38-7.78,5.19-8.73c0.01,0.42,0.34,0.74,0.75,0.74h1.5c0.42,0,0.74-0.32,0.75-0.74
                c2.81,0.95,4.93,4.51,5.21,8.73h-0.22c-0.42,0-0.75,0.34-0.75,0.75v1.5c0,0.41,0.33,0.75,0.75,0.75h1.5c0.41,0,0.75-0.34,0.75-0.75
                v-1.5c0-0.41-0.34-0.75-0.75-0.75h-0.28c-0.24-3.99-1.97-7.38-4.46-8.99h3.78C19.225,7.585,19.785,8.005,20.435,8.005z
                M20.435,6.005c0.27,0,0.5,0.23,0.5,0.5c0,0.28-0.23,0.5-0.5,0.5c-0.28,0-0.5-0.22-0.5-0.5C19.935,6.235,20.155,6.005,20.435,6.005
                z M3.565,7.005c-0.28,0-0.5-0.22-0.5-0.5c0-0.27,0.22-0.5,0.5-0.5c0.27,0,0.5,0.23,0.5,0.5C4.065,6.785,3.835,7.005,3.565,7.005z
                M5.265,17.995h-1v-1h1V17.995z M12.495,7.005h-1v-1h1V7.005z M18.735,16.995h1v1h-1V16.995z"/></svg>